<?xml version="1.0" encoding="UTF-8"?>
<!DOCTYPE svg PUBLIC "-//W3C//DTD SVG 1.1//EN" "http://www.w3.org/Graphics/SVG/1.1/DTD/svg11.dtd">
<svg xmlns="http://www.w3.org/2000/svg" version="1.1" width="512px" height="512px" style="shape-rendering:geometricPrecision; text-rendering:geometricPrecision; image-rendering:optimizeQuality; fill-rule:evenodd; clip-rule:evenodd" xmlns:xlink="http://www.w3.org/1999/xlink">
<g><path style="opacity:0.975" fill="#000000" d="M 187.5,15.5 C 232.835,15.3333 278.168,15.5 323.5,16C 324.416,16.3742 325.25,16.8742 326,17.5C 327.154,35.4122 327.654,53.4122 327.5,71.5C 327.654,89.5878 327.154,107.588 326,125.5C 325.25,126.126 324.416,126.626 323.5,127C 303.503,127.5 283.503,127.667 263.5,127.5C 263.5,138.167 263.5,148.833 263.5,159.5C 312.834,159.333 362.168,159.5 411.5,160C 413.333,160.5 414.5,161.667 415,163.5C 415.5,178.163 415.667,192.83 415.5,207.5C 455.539,214.872 476.872,238.872 479.5,279.5C 476.872,320.128 455.539,344.128 415.5,351.5C 415.5,364.833 415.5,378.167 415.5,391.5C 435.503,391.333 455.503,391.5 475.5,392C 476.416,392.374 477.25,392.874 478,393.5C 479.653,428.748 479.986,464.082 479,499.5C 478.5,501.333 477.333,502.5 475.5,503C 430.167,503.667 384.833,503.667 339.5,503C 337.667,502.5 336.5,501.333 336,499.5C 335.014,464.082 335.347,428.748 337,393.5C 337.75,392.874 338.584,392.374 339.5,392C 359.497,391.5 379.497,391.333 399.5,391.5C 399.5,378.167 399.5,364.833 399.5,351.5C 359.461,344.128 338.128,320.128 335.5,279.5C 338.128,238.872 359.461,214.872 399.5,207.5C 399.5,196.833 399.5,186.167 399.5,175.5C 306.167,175.5 212.833,175.5 119.5,175.5C 119.5,186.167 119.5,196.833 119.5,207.5C 159.539,214.872 180.872,238.872 183.5,279.5C 180.872,320.128 159.539,344.128 119.5,351.5C 119.5,364.833 119.5,378.167 119.5,391.5C 139.503,391.333 159.503,391.5 179.5,392C 180.416,392.374 181.25,392.874 182,393.5C 183.653,428.748 183.986,464.082 183,499.5C 182.5,501.333 181.333,502.5 179.5,503C 134.167,503.667 88.8333,503.667 43.5,503C 41.6667,502.5 40.5,501.333 40,499.5C 39.0136,464.082 39.347,428.748 41,393.5C 41.7504,392.874 42.5838,392.374 43.5,392C 63.4972,391.5 83.4972,391.333 103.5,391.5C 103.5,378.167 103.5,364.833 103.5,351.5C 63.4609,344.128 42.1276,320.128 39.5,279.5C 42.1276,238.872 63.4609,214.872 103.5,207.5C 103.333,192.83 103.5,178.163 104,163.5C 104.5,161.667 105.667,160.5 107.5,160C 154.165,159.5 200.832,159.333 247.5,159.5C 247.5,148.833 247.5,138.167 247.5,127.5C 227.497,127.667 207.497,127.5 187.5,127C 186.584,126.626 185.75,126.126 185,125.5C 183.347,90.2516 183.014,54.9182 184,19.5C 184.69,17.6498 185.856,16.3164 187.5,15.5 Z M 199.5,31.5 C 236.833,31.5 274.167,31.5 311.5,31.5C 311.5,58.1667 311.5,84.8333 311.5,111.5C 274.167,111.5 236.833,111.5 199.5,111.5C 199.5,84.8333 199.5,58.1667 199.5,31.5 Z M 110.5,223.5 C 132.092,224.613 148.592,234.28 160,252.5C 173.412,283.703 166.245,308.87 138.5,328C 107.297,341.412 82.1299,334.245 63,306.5C 50.3172,278.072 55.8172,253.906 79.5,234C 89.0565,227.87 99.3899,224.37 110.5,223.5 Z M 397.5,224.5 C 423.01,221.674 442.51,231.007 456,252.5C 469.412,283.703 462.245,308.87 434.5,328C 403.297,341.412 378.13,334.245 359,306.5C 347.111,280.935 350.945,258.102 370.5,238C 378.498,231.334 387.498,226.834 397.5,224.5 Z M 55.5,407.5 C 92.8333,407.5 130.167,407.5 167.5,407.5C 167.5,434.167 167.5,460.833 167.5,487.5C 130.167,487.5 92.8333,487.5 55.5,487.5C 55.5,460.833 55.5,434.167 55.5,407.5 Z M 351.5,407.5 C 388.833,407.5 426.167,407.5 463.5,407.5C 463.5,434.167 463.5,460.833 463.5,487.5C 426.167,487.5 388.833,487.5 351.5,487.5C 351.5,460.833 351.5,434.167 351.5,407.5 Z"/></g>
<g><path style="opacity:0.914" fill="#000000" d="M 136.5,249.5 C 141.289,253.078 145.956,256.911 150.5,261C 134.167,280 117.833,299 101.5,318C 97.5,320 93.5,320 89.5,318C 83.3011,309.4 77.8011,300.567 73,291.5C 77.3333,288.5 81.6667,285.5 86,282.5C 89.2467,286.659 92.2467,290.992 95,295.5C 95.7175,296.451 96.5509,296.617 97.5,296C 110.865,280.747 123.865,265.247 136.5,249.5 Z"/></g>
<g><path style="opacity:0.908" fill="#000000" d="M 388.5,249.5 C 395.091,254.751 401.425,260.418 407.5,266.5C 413.5,260.833 419.5,255.167 425.5,249.5C 430.384,253.198 434.218,257.532 437,262.5C 431.318,268.015 425.818,273.681 420.5,279.5C 426.167,285.5 431.833,291.5 437.5,297.5C 433.802,302.384 429.468,306.218 424.5,309C 418.985,303.318 413.319,297.818 407.5,292.5C 401.5,298.167 395.5,303.833 389.5,309.5C 384.616,305.802 380.782,301.468 378,296.5C 383.682,290.985 389.182,285.319 394.5,279.5C 388.833,273.5 383.167,267.5 377.5,261.5C 381.189,257.48 384.855,253.48 388.5,249.5 Z"/></g>
</svg>
