<?xml version="1.0" encoding="UTF-8"?>
<!DOCTYPE svg PUBLIC "-//W3C//DTD SVG 1.1//EN" "http://www.w3.org/Graphics/SVG/1.1/DTD/svg11.dtd">
<svg xmlns="http://www.w3.org/2000/svg" version="1.1" width="512px" height="512px" style="shape-rendering:geometricPrecision; text-rendering:geometricPrecision; image-rendering:optimizeQuality; fill-rule:evenodd; clip-rule:evenodd" xmlns:xlink="http://www.w3.org/1999/xlink">
<g><path style="opacity:1" fill="#f6f6f6" d="M -0.5,-0.5 C 170.167,-0.5 340.833,-0.5 511.5,-0.5C 511.5,170.167 511.5,340.833 511.5,511.5C 340.833,511.5 170.167,511.5 -0.5,511.5C -0.5,340.833 -0.5,170.167 -0.5,-0.5 Z"/></g>
<g><path style="opacity:1" fill="#121212" d="M 258.5,29.5 C 257.566,30.5676 257.232,31.901 257.5,33.5C 271.516,33.8326 285.516,33.4992 299.5,32.5C 299.376,31.8933 299.043,31.56 298.5,31.5C 295.607,18.7655 300.274,10.5989 312.5,7C 321.685,5.8646 330.685,6.53127 339.5,9C 344.272,11.3795 346.939,15.2129 347.5,20.5C 347.5,24.8333 347.5,29.1667 347.5,33.5C 361.183,33.8325 374.85,33.4992 388.5,32.5C 388.376,31.8933 388.043,31.56 387.5,31.5C 387.016,25.2886 387.849,19.2886 390,13.5C 393.016,9.90825 396.849,7.74159 401.5,7C 410.642,5.95452 419.642,6.62119 428.5,9C 432.779,11.7286 435.446,15.5619 436.5,20.5C 436.5,24.8333 436.5,29.1667 436.5,33.5C 440.167,33.5 443.833,33.5 447.5,33.5C 465.971,35.1288 478.137,44.7954 484,62.5C 485.571,142.159 485.904,221.825 485,301.5C 483.994,307.518 481.994,313.184 479,318.5C 459.5,338 440,357.5 420.5,377C 411.278,382.58 401.278,385.08 390.5,384.5C 389.791,383.596 388.791,383.263 387.5,383.5C 387.5,388.833 387.5,394.167 387.5,399.5C 381.789,440.712 358.456,465.212 317.5,473C 278.582,475.879 250.249,460.046 232.5,425.5C 205.917,425.152 181.751,417.485 160,402.5C 152.414,408.081 145.414,414.414 139,421.5C 139.461,429.07 137.795,436.07 134,442.5C 113.803,462.365 93.3027,481.865 72.5,501C 65.692,503.228 59.0254,502.894 52.5,500C 44.3333,491.833 36.1667,483.667 28,475.5C 23.7953,468.367 23.4619,461.034 27,453.5C 48.1971,432.635 69.6971,412.135 91.5,392C 97.1169,390.948 102.784,390.282 108.5,390C 110.167,388.333 111.833,386.667 113.5,385C 89.4859,383.648 75.6526,371.148 72,347.5C 71.3333,254.167 71.3333,160.833 72,67.5C 76.0943,48.5718 87.5943,37.2385 106.5,33.5C 111.5,33.5 116.5,33.5 121.5,33.5C 121.5,29.1667 121.5,24.8333 121.5,20.5C 121.766,14.8012 124.433,10.6346 129.5,8C 139.5,7.33333 149.5,7.33333 159.5,8C 164.46,9.79503 167.46,13.295 168.5,18.5C 168.5,23.5 168.5,28.5 168.5,33.5C 182.344,33.829 196.01,33.4957 209.5,32.5C 209.334,27.4889 209.501,22.4889 210,17.5C 212.451,11.3839 216.951,7.88385 223.5,7C 232.658,5.90724 241.658,6.5739 250.5,9C 257.55,13.9614 260.216,20.7947 258.5,29.5 Z"/></g>
<g><path style="opacity:1" fill="#828282" d="M 151.5,23.5 C 152.496,39.3246 152.83,55.3246 152.5,71.5C 147.5,71.5 142.5,71.5 137.5,71.5C 137.5,55.1667 137.5,38.8333 137.5,22.5C 142.363,22.1805 147.03,22.5139 151.5,23.5 Z"/></g>
<g><path style="opacity:1" fill="#f7f7f7" d="M 151.5,23.5 C 151.5,39.1667 151.5,54.8333 151.5,70.5C 147.167,70.5 142.833,70.5 138.5,70.5C 138.5,54.8333 138.5,39.1667 138.5,23.5C 142.833,23.5 147.167,23.5 151.5,23.5 Z"/></g>
<g><path style="opacity:1" fill="#818181" d="M 226.5,22.5 C 231.5,22.5 236.5,22.5 241.5,22.5C 241.5,38.8333 241.5,55.1667 241.5,71.5C 236.5,71.5 231.5,71.5 226.5,71.5C 226.5,55.1667 226.5,38.8333 226.5,22.5 Z"/></g>
<g><path style="opacity:1" fill="#f7f7f7" d="M 227.5,23.5 C 231.833,23.5 236.167,23.5 240.5,23.5C 240.5,39.1667 240.5,54.8333 240.5,70.5C 236.167,70.5 231.833,70.5 227.5,70.5C 227.5,54.8333 227.5,39.1667 227.5,23.5 Z"/></g>
<g><path style="opacity:1" fill="#828282" d="M 315.5,22.5 C 320.833,22.5 326.167,22.5 331.5,22.5C 331.5,38.8333 331.5,55.1667 331.5,71.5C 326.167,71.5 320.833,71.5 315.5,71.5C 315.5,55.1667 315.5,38.8333 315.5,22.5 Z"/></g>
<g><path style="opacity:1" fill="#f7f7f7" d="M 316.5,23.5 C 321.167,23.5 325.833,23.5 330.5,23.5C 330.5,39.1667 330.5,54.8333 330.5,70.5C 325.833,70.5 321.167,70.5 316.5,70.5C 316.5,54.8333 316.5,39.1667 316.5,23.5 Z"/></g>
<g><path style="opacity:1" fill="#818181" d="M 404.5,22.5 C 409.833,22.5 415.167,22.5 420.5,22.5C 420.5,38.8333 420.5,55.1667 420.5,71.5C 415.167,71.5 409.833,71.5 404.5,71.5C 404.5,55.1667 404.5,38.8333 404.5,22.5 Z"/></g>
<g><path style="opacity:1" fill="#f7f7f7" d="M 405.5,23.5 C 410.167,23.5 414.833,23.5 419.5,23.5C 419.5,39.1667 419.5,54.8333 419.5,70.5C 414.833,70.5 410.167,70.5 405.5,70.5C 405.5,54.8333 405.5,39.1667 405.5,23.5 Z"/></g>
<g><path style="opacity:1" fill="#727272" d="M 121.5,20.5 C 121.5,24.8333 121.5,29.1667 121.5,33.5C 116.5,33.5 111.5,33.5 106.5,33.5C 110.97,32.5139 115.637,32.1805 120.5,32.5C 120.183,28.2984 120.517,24.2984 121.5,20.5 Z"/></g>
<g><path style="opacity:1" fill="#858585" d="M 168.5,18.5 C 169.486,22.97 169.819,27.6367 169.5,32.5C 182.833,32.5 196.167,32.5 209.5,32.5C 196.01,33.4957 182.344,33.829 168.5,33.5C 168.5,28.5 168.5,23.5 168.5,18.5 Z"/></g>
<g><path style="opacity:1" fill="#7d7d7d" d="M 258.5,29.5 C 258.5,30.5 258.5,31.5 258.5,32.5C 272.01,32.8289 285.344,32.4956 298.5,31.5C 299.043,31.56 299.376,31.8933 299.5,32.5C 285.516,33.4992 271.516,33.8326 257.5,33.5C 257.232,31.901 257.566,30.5676 258.5,29.5 Z"/></g>
<g><path style="opacity:1" fill="#787878" d="M 347.5,20.5 C 348.483,24.2984 348.817,28.2984 348.5,32.5C 361.677,32.8288 374.677,32.4955 387.5,31.5C 388.043,31.56 388.376,31.8933 388.5,32.5C 374.85,33.4992 361.183,33.8325 347.5,33.5C 347.5,29.1667 347.5,24.8333 347.5,20.5 Z"/></g>
<g><path style="opacity:1" fill="#525252" d="M 436.5,20.5 C 437.483,24.2984 437.817,28.2984 437.5,32.5C 441.042,32.1872 444.375,32.5206 447.5,33.5C 443.833,33.5 440.167,33.5 436.5,33.5C 436.5,29.1667 436.5,24.8333 436.5,20.5 Z"/></g>
<g><path style="opacity:1" fill="#7b7b7b" d="M 108.5,50.5 C 112.683,49.1889 117.016,49.1889 121.5,50.5C 121.376,51.1067 121.043,51.44 120.5,51.5C 116.702,50.5166 112.702,50.1832 108.5,50.5 Z"/></g>
<g><path style="opacity:1" fill="#818181" d="M 210.5,72.5 C 209.508,65.3524 209.175,58.0191 209.5,50.5C 196.167,50.5 182.833,50.5 169.5,50.5C 169.821,56.0262 169.488,61.3595 168.5,66.5C 168.5,60.8333 168.5,55.1667 168.5,49.5C 182.5,49.5 196.5,49.5 210.5,49.5C 210.5,57.1667 210.5,64.8333 210.5,72.5 Z"/></g>
<g><path style="opacity:1" fill="#7c7c7c" d="M 298.5,51.5 C 285.344,50.5044 272.01,50.1711 258.5,50.5C 258.821,55.6946 258.487,60.6946 257.5,65.5C 257.5,60.1667 257.5,54.8333 257.5,49.5C 271.516,49.1674 285.516,49.5008 299.5,50.5C 299.376,51.1067 299.043,51.44 298.5,51.5 Z"/></g>
<g><path style="opacity:1" fill="#808080" d="M 387.5,51.5 C 374.677,50.5045 361.677,50.1712 348.5,50.5C 348.818,55.0323 348.485,59.3656 347.5,63.5C 347.5,58.8333 347.5,54.1667 347.5,49.5C 361.183,49.1675 374.85,49.5008 388.5,50.5C 388.376,51.1067 388.043,51.44 387.5,51.5 Z"/></g>
<g><path style="opacity:1" fill="#f5f5f5" d="M 108.5,50.5 C 112.702,50.1832 116.702,50.5166 120.5,51.5C 119.035,59.8639 119.201,68.1973 121,76.5C 122.963,82.7311 127.13,86.5644 133.5,88C 143.526,90.4701 153.192,89.4701 162.5,85C 164,83.5 165.5,82 167,80.5C 167.829,75.8627 168.329,71.196 168.5,66.5C 169.488,61.3595 169.821,56.0262 169.5,50.5C 182.833,50.5 196.167,50.5 209.5,50.5C 209.175,58.0191 209.508,65.3524 210.5,72.5C 210.994,80.297 214.994,85.4637 222.5,88C 230.167,88.6667 237.833,88.6667 245.5,88C 255.885,84.067 259.885,76.567 257.5,65.5C 258.487,60.6946 258.821,55.6946 258.5,50.5C 272.01,50.1711 285.344,50.5044 298.5,51.5C 297.091,59.5454 297.258,67.5454 299,75.5C 301.377,82.5455 306.21,86.7122 313.5,88C 319.5,88.6667 325.5,88.6667 331.5,88C 340.259,87.548 345.425,83.048 347,74.5C 347.499,70.8484 347.665,67.1817 347.5,63.5C 348.485,59.3656 348.818,55.0323 348.5,50.5C 361.677,50.1712 374.677,50.5045 387.5,51.5C 386.048,59.537 386.215,67.537 388,75.5C 390.377,82.5455 395.21,86.7122 402.5,88C 408.5,88.6667 414.5,88.6667 420.5,88C 428.138,87.4369 433.305,83.6035 436,76.5C 436.499,72.1794 436.666,67.8461 436.5,63.5C 437.485,59.3656 437.818,55.0323 437.5,50.5C 440.833,50.5 444.167,50.5 447.5,50.5C 460.165,53.501 467.165,61.501 468.5,74.5C 468.5,83.8333 468.5,93.1667 468.5,102.5C 341.833,102.5 215.167,102.5 88.5,102.5C 88.5,95.5 88.5,88.5 88.5,81.5C 86.629,69.4205 90.629,59.9205 100.5,53C 103.022,51.6591 105.689,50.8257 108.5,50.5 Z"/></g>
<g><path style="opacity:1" fill="#8e8e8e" d="M 447.5,50.5 C 444.167,50.5 440.833,50.5 437.5,50.5C 437.818,55.0323 437.485,59.3656 436.5,63.5C 436.5,58.8333 436.5,54.1667 436.5,49.5C 440.371,49.185 444.038,49.5184 447.5,50.5 Z"/></g>
<g><path style="opacity:1" fill="#818181" d="M 468.5,74.5 C 469.494,83.9856 469.827,93.6522 469.5,103.5C 342.167,103.5 214.833,103.5 87.5,103.5C 87.175,95.9809 87.5084,88.6476 88.5,81.5C 88.5,88.5 88.5,95.5 88.5,102.5C 215.167,102.5 341.833,102.5 468.5,102.5C 468.5,93.1667 468.5,83.8333 468.5,74.5 Z"/></g>
<g><path style="opacity:1" fill="#828282" d="M 88.5,120.5 C 215.332,119.5 342.332,119.167 469.5,119.5C 469.832,157.004 469.498,194.337 468.5,231.5C 468.5,194.5 468.5,157.5 468.5,120.5C 341.833,120.5 215.167,120.5 88.5,120.5 Z"/></g>
<g><path style="opacity:1" fill="#f4f4f4" d="M 88.5,120.5 C 215.167,120.5 341.833,120.5 468.5,120.5C 468.5,157.5 468.5,194.5 468.5,231.5C 468.5,253.833 468.5,276.167 468.5,298.5C 449.534,299.848 430.534,300.681 411.5,301C 406.6,302.902 403.433,306.402 402,311.5C 401.501,316.155 401.334,320.821 401.5,325.5C 400.504,338.99 400.171,352.656 400.5,366.5C 394.833,366.5 389.167,366.5 383.5,366.5C 376.275,344.606 362.275,328.606 341.5,318.5C 340.342,256.869 310.342,217.369 251.5,200C 193.169,191.082 150.335,212.582 123,264.5C 109.256,298.807 110.756,332.473 127.5,365.5C 119.855,366.665 112.188,366.831 104.5,366C 96.5074,362.674 91.3407,356.841 89,348.5C 88.5,272.501 88.3333,196.501 88.5,120.5 Z"/></g>
<g><path style="opacity:1" fill="#101010" d="M 109.5,135.5 C 164.168,135.333 218.834,135.5 273.5,136C 277.527,139.122 278.527,143.122 276.5,148C 275.556,149.477 274.223,150.477 272.5,151C 219.167,151.667 165.833,151.667 112.5,151C 105.651,147.087 104.651,141.92 109.5,135.5 Z"/></g>
<g><path style="opacity:1" fill="#101010" d="M 109.5,165.5 C 190.501,165.333 271.501,165.5 352.5,166C 356.81,169.341 357.644,173.508 355,178.5C 353.829,179.893 352.329,180.727 350.5,181C 271.5,181.667 192.5,181.667 113.5,181C 105.791,177.589 104.458,172.423 109.5,165.5 Z"/></g>
<g><path style="opacity:1" fill="#111111" d="M 325.5,212.5 C 365.501,212.333 405.501,212.5 445.5,213C 453.43,216.65 454.43,221.65 448.5,228C 407.167,228.667 365.833,228.667 324.5,228C 318.873,222.274 319.206,217.108 325.5,212.5 Z"/></g>
<g><path style="opacity:1" fill="#f1f1f1" d="M 210.5,214.5 C 260.118,210.693 295.618,231.027 317,275.5C 321.651,287.405 323.484,299.738 322.5,312.5C 318.802,312.448 315.135,312.114 311.5,311.5C 310.378,286.095 300.711,264.595 282.5,247C 246.922,220.524 210.922,219.858 174.5,245C 142.783,273.713 135.283,307.88 152,347.5C 162.96,370.403 180.793,384.903 205.5,391C 212.366,392.882 219.366,393.715 226.5,393.5C 226.5,397.833 226.5,402.167 226.5,406.5C 186.498,404.649 157.332,385.982 139,350.5C 120.653,300.02 133.153,259.187 176.5,228C 187.371,221.995 198.705,217.495 210.5,214.5 Z"/></g>
<g><path style="opacity:1" fill="#111111" d="M 338.5,242.5 C 374.502,242.333 410.502,242.5 446.5,243C 450.484,243.654 452.151,245.987 451.5,250C 452,253.668 450.666,256.334 447.5,258C 410.833,258.667 374.167,258.667 337.5,258C 334.64,254.319 333.807,250.152 335,245.5C 336.145,244.364 337.312,243.364 338.5,242.5 Z"/></g>
<g><path style="opacity:1" fill="#f5f5f5" d="M 212.5,244.5 C 256.37,240.574 283.204,259.907 293,302.5C 293.824,305.882 293.657,309.216 292.5,312.5C 257.45,320.217 236.116,341.55 228.5,376.5C 191.246,375.086 168.746,356.086 161,319.5C 158.367,287.136 171.534,263.636 200.5,249C 204.61,247.485 208.61,245.985 212.5,244.5 Z"/></g>
<g><path style="opacity:1" fill="#111111" d="M 348.5,272.5 C 381.502,272.333 414.502,272.5 447.5,273C 451.788,276.771 452.621,281.271 450,286.5C 449.25,287.126 448.416,287.626 447.5,288C 414.5,288.667 381.5,288.667 348.5,288C 343.197,282.76 343.197,277.594 348.5,272.5 Z"/></g>
<g><path style="opacity:1" fill="#f5f5f5" d="M 439.5,317.5 C 444.844,317.334 450.177,317.501 455.5,318C 443.333,330.167 431.167,342.333 419,354.5C 418.502,351.183 418.335,347.85 418.5,344.5C 418.5,335.5 418.5,326.5 418.5,317.5C 425.5,317.5 432.5,317.5 439.5,317.5 Z"/></g>
<g><path style="opacity:1" fill="#7c7c7c" d="M 439.5,317.5 C 432.5,317.5 425.5,317.5 418.5,317.5C 418.5,326.5 418.5,335.5 418.5,344.5C 417.506,335.348 417.173,326.015 417.5,316.5C 425.019,316.175 432.352,316.508 439.5,317.5 Z"/></g>
<g><path style="opacity:1" fill="#f4f4f4" d="M 295.5,328.5 C 344.671,327.507 369.838,351.507 371,400.5C 361.915,439.897 337.082,458.397 296.5,456C 269.984,449.819 252.818,433.652 245,407.5C 239.645,366.859 256.478,340.526 295.5,328.5 Z"/></g>
<g><path style="opacity:1" fill="#878787" d="M 401.5,325.5 C 401.5,339.5 401.5,353.5 401.5,367.5C 395.31,367.823 389.31,367.49 383.5,366.5C 389.167,366.5 394.833,366.5 400.5,366.5C 400.171,352.656 400.504,338.99 401.5,325.5 Z"/></g>
<g><path style="opacity:1" fill="#141414" d="M 332.5,352.5 C 355.095,350.249 363.261,359.916 357,381.5C 341.862,397.638 326.362,413.471 310.5,429C 299.276,436.125 289.276,434.792 280.5,425C 271.502,416.451 263.336,407.285 256,397.5C 252.779,378.723 260.612,370.223 279.5,372C 281.5,373 283.5,374 285.5,375C 289.348,379.016 293.348,382.849 297.5,386.5C 309.214,375.118 320.881,363.785 332.5,352.5 Z"/></g>
<g><path style="opacity:1" fill="#f2f2f2" d="M 138.5,384.5 C 141.975,385.802 144.142,388.135 145,391.5C 139.5,397 134,402.5 128.5,408C 125.72,408.269 123.554,407.102 122,404.5C 121.333,403.5 121.333,402.5 122,401.5C 127.703,395.965 133.203,390.298 138.5,384.5 Z"/></g>
<g><path style="opacity:1" fill="#7b7b7b" d="M 390.5,384.5 C 388.859,389.251 387.859,394.251 387.5,399.5C 387.5,394.167 387.5,388.833 387.5,383.5C 388.791,383.263 389.791,383.596 390.5,384.5 Z"/></g>
<g><path style="opacity:1" fill="#f3f3f3" d="M 97.5,407.5 C 98.552,407.351 99.552,407.517 100.5,408C 107.681,415.014 114.681,422.181 121.5,429.5C 102.679,448.154 83.6789,466.654 64.5,485C 63.5,485.667 62.5,485.667 61.5,485C 54.9679,478.802 48.8013,472.302 43,465.5C 42.3333,464.5 42.3333,463.5 43,462.5C 61.3684,444.299 79.5351,425.965 97.5,407.5 Z"/></g>
</svg>
