<?xml version="1.0" encoding="UTF-8"?>
<!DOCTYPE svg PUBLIC "-//W3C//DTD SVG 1.1//EN" "http://www.w3.org/Graphics/SVG/1.1/DTD/svg11.dtd">
<svg xmlns="http://www.w3.org/2000/svg" version="1.1" width="24px" height="24px" style="shape-rendering:geometricPrecision; text-rendering:geometricPrecision; image-rendering:optimizeQuality; fill-rule:evenodd; clip-rule:evenodd" xmlns:xlink="http://www.w3.org/1999/xlink">
<g><path style="opacity:0.938" fill="#bdd1fa" d="M 9.5,1.5 C 13.3472,2.52391 14.3472,4.85724 12.5,8.5C 11.675,9.38568 10.675,9.71901 9.5,9.5C 10.1534,8.19322 10.8201,6.85989 11.5,5.5C 10.8201,4.14011 10.1534,2.80678 9.5,1.5 Z"/></g>
<g><path style="opacity:0.592" fill="#2d6fff" d="M 4.5,1.5 C 5.49162,1.32842 6.15829,1.66175 6.5,2.5C 4.80077,5.57442 5.46743,7.90776 8.5,9.5C 8.5,10.1667 8.5,10.8333 8.5,11.5C 5.56135,12.456 3.22802,14.1226 1.5,16.5C 0.833333,16.5 0.5,16.1667 0.5,15.5C 1.05527,13.2712 2.3886,11.6046 4.5,10.5C 2.01648,7.32908 2.01648,4.32908 4.5,1.5 Z"/></g>
<g><path style="opacity:0.624" fill="#3c78fe" d="M 6.5,-0.5 C 8.16667,-0.5 9.83333,-0.5 11.5,-0.5C 15.7311,2.26559 16.3977,5.76559 13.5,10C 14.1667,10.6667 14.8333,10.6667 15.5,10C 16.5731,6.68812 18.5731,5.52146 21.5,6.5C 21.6716,7.49162 21.3382,8.15829 20.5,8.5C 20.5654,8.06178 20.3988,7.72845 20,7.5C 17.294,9.87058 14.9606,12.5372 13,15.5C 12.2599,16.7494 12.4265,17.7494 13.5,18.5C 13.5,19.1667 13.8333,19.5 14.5,19.5C 13.5,20.1667 12.5,20.8333 11.5,21.5C 11.1667,21.5 10.8333,21.5 10.5,21.5C 10.2924,19.0799 10.6258,16.7466 11.5,14.5C 10.8118,13.1451 9.81181,12.1451 8.5,11.5C 8.5,10.8333 8.5,10.1667 8.5,9.5C 8.83333,9.5 9.16667,9.5 9.5,9.5C 10.675,9.71901 11.675,9.38568 12.5,8.5C 14.3472,4.85724 13.3472,2.52391 9.5,1.5C 8.39105,1.55688 7.39105,1.89022 6.5,2.5C 6.15829,1.66175 5.49162,1.32842 4.5,1.5C 5.16667,0.833333 5.83333,0.166667 6.5,-0.5 Z"/></g>
<g><path style="opacity:0.56" fill="#2d72fe" d="M 21.5,6.5 C 22.1667,6.83333 22.8333,7.16667 23.5,7.5C 23.5,8.83333 23.5,10.1667 23.5,11.5C 18.6182,14.3623 17.2849,18.3623 19.5,23.5C 12.8333,23.5 6.16667,23.5 -0.5,23.5C -0.5,20.8333 -0.5,18.1667 -0.5,15.5C -0.166667,15.5 0.166667,15.5 0.5,15.5C 0.5,16.1667 0.833333,16.5 1.5,16.5C 1.5,18.1667 1.5,19.8333 1.5,21.5C 4.5,21.5 7.5,21.5 10.5,21.5C 10.8333,21.5 11.1667,21.5 11.5,21.5C 13.5,21.5 15.5,21.5 17.5,21.5C 18.0443,17.3601 17.0443,16.6935 14.5,19.5C 13.8333,19.5 13.5,19.1667 13.5,18.5C 14.1667,18.5 14.5,18.1667 14.5,17.5C 15.1667,17.5 15.5,17.1667 15.5,16.5C 15.5,16.1667 15.5,15.8333 15.5,15.5C 16.1667,15.5 16.5,15.1667 16.5,14.5C 17.1667,14.5 17.5,14.1667 17.5,13.5C 18.1667,13.5 18.5,13.1667 18.5,12.5C 19.9063,12.0269 20.573,11.0269 20.5,9.5C 20.5,9.16667 20.5,8.83333 20.5,8.5C 21.3382,8.15829 21.6716,7.49162 21.5,6.5 Z"/></g>
<g><path style="opacity:0.778" fill="#bed2fb" d="M 20.5,8.5 C 20.5,8.83333 20.5,9.16667 20.5,9.5C 19.0937,9.97306 18.427,10.9731 18.5,12.5C 17.8333,12.5 17.5,12.8333 17.5,13.5C 16.8333,13.5 16.5,13.8333 16.5,14.5C 15.8333,14.5 15.5,14.8333 15.5,15.5C 15.5,15.8333 15.5,16.1667 15.5,16.5C 14.8333,16.5 14.5,16.8333 14.5,17.5C 13.8333,17.5 13.5,17.8333 13.5,18.5C 12.4265,17.7494 12.2599,16.7494 13,15.5C 14.9606,12.5372 17.294,9.87058 20,7.5C 20.3988,7.72845 20.5654,8.06178 20.5,8.5 Z"/></g>
<g><path style="opacity:0.996" fill="#b3c9fa" d="M 11.5,21.5 C 12.5,20.8333 13.5,20.1667 14.5,19.5C 17.0443,16.6935 18.0443,17.3601 17.5,21.5C 15.5,21.5 13.5,21.5 11.5,21.5 Z"/></g>
</svg>
