<?xml version="1.0" encoding="UTF-8"?>
<!DOCTYPE svg PUBLIC "-//W3C//DTD SVG 1.1//EN" "http://www.w3.org/Graphics/SVG/1.1/DTD/svg11.dtd">
<svg xmlns="http://www.w3.org/2000/svg" version="1.1" width="512px" height="512px" style="shape-rendering:geometricPrecision; text-rendering:geometricPrecision; image-rendering:optimizeQuality; fill-rule:evenodd; clip-rule:evenodd" xmlns:xlink="http://www.w3.org/1999/xlink">
<g><path style="opacity:1" fill="#f6f7f7" d="M -0.5,-0.5 C 73.5,-0.5 147.5,-0.5 221.5,-0.5C 145.855,12.4076 85.6884,50.0743 41,112.5C 20.5939,145.195 6.76059,180.528 -0.5,218.5C -0.5,145.5 -0.5,72.5 -0.5,-0.5 Z"/></g>
<g><path style="opacity:1" fill="#5edad2" d="M 221.5,-0.5 C 243.5,-0.5 265.5,-0.5 287.5,-0.5C 297.938,2.42518 308.605,4.92518 319.5,7C 383.279,24.4562 433.446,60.6228 470,115.5C 492.693,150.903 506.526,189.57 511.5,231.5C 511.5,247.5 511.5,263.5 511.5,279.5C 502.533,345.604 473.866,401.437 425.5,447C 422.536,449.81 419.202,451.976 415.5,453.5C 413.794,441.766 411.794,430.099 409.5,418.5C 408.37,409.498 406.37,400.832 403.5,392.5C 403.81,389.287 403.477,386.287 402.5,383.5C 402.219,379.812 401.719,376.145 401,372.5C 400.617,371.944 400.117,371.611 399.5,371.5C 399.665,368.482 399.498,365.482 399,362.5C 391.284,351.388 380.784,344.388 367.5,341.5C 365.485,340.076 363.152,339.41 360.5,339.5C 351.52,336.512 342.52,333.846 333.5,331.5C 324.204,325.892 314.871,320.225 305.5,314.5C 302.47,310.44 299.803,306.107 297.5,301.5C 312.538,302.15 327.205,301.483 341.5,299.5C 352.875,274.543 363.375,249.21 373,223.5C 380.473,192.832 378.473,162.832 367,133.5C 356.37,105.881 340.537,81.7139 319.5,61C 306.453,50.1466 291.453,43.6466 274.5,41.5C 266.173,40.8336 257.673,40.5002 249,40.5C 240.139,40.5019 231.639,41.1686 223.5,42.5C 201.238,50.5666 183.404,64.5666 170,84.5C 151.758,110.561 139.758,139.228 134,170.5C 132.07,190.523 133.736,210.19 139,229.5C 147.967,253.112 157.8,276.445 168.5,299.5C 183.152,300.499 197.818,300.833 212.5,300.5C 210.92,305.594 208.586,310.261 205.5,314.5C 196.833,320.167 188.167,325.833 179.5,331.5C 175.292,331.677 171.626,333.01 168.5,335.5C 158.111,338.013 147.778,340.847 137.5,344C 127.943,348.093 119.61,353.926 112.5,361.5C 111.614,362.325 111.281,363.325 111.5,364.5C 109.656,366.279 108.99,368.612 109.5,371.5C 108.883,371.611 108.383,371.944 108,372.5C 107.503,375.146 107.336,377.813 107.5,380.5C 106.354,384.754 105.687,389.087 105.5,393.5C 104.5,393.5 103.5,393.5 102.5,393.5C 102.66,391.801 102.494,390.134 102,388.5C 101.056,389.263 100.556,390.263 100.5,391.5C 102.805,397.641 103.139,403.974 101.5,410.5C 101.784,412.415 101.451,414.081 100.5,415.5C 99.8826,415.611 99.3826,415.944 99,416.5C 98.5017,419.817 98.335,423.15 98.5,426.5C 97.325,426.281 96.325,426.614 95.5,427.5C 96.773,432.165 96.773,436.832 95.5,441.5C 95.5,444.167 95.5,446.833 95.5,449.5C 94.4157,450.974 93.0824,451.807 91.5,452C 53.9567,421.12 27.4567,382.62 12,336.5C 6.98924,320.244 2.82257,303.911 -0.5,287.5C -0.5,264.5 -0.5,241.5 -0.5,218.5C 6.76059,180.528 20.5939,145.195 41,112.5C 85.6884,50.0743 145.855,12.4076 221.5,-0.5 Z"/></g>
<g><path style="opacity:1" fill="#f6f7f7" d="M 287.5,-0.5 C 362.167,-0.5 436.833,-0.5 511.5,-0.5C 511.5,76.8333 511.5,154.167 511.5,231.5C 506.526,189.57 492.693,150.903 470,115.5C 433.446,60.6228 383.279,24.4562 319.5,7C 308.605,4.92518 297.938,2.42518 287.5,-0.5 Z"/></g>
<g><path style="opacity:1" fill="#71bdb7" d="M 274.5,41.5 C 257.472,41.224 240.472,41.5574 223.5,42.5C 231.639,41.1686 240.139,40.5019 249,40.5C 257.673,40.5002 266.173,40.8336 274.5,41.5 Z"/></g>
<g><path style="opacity:1" fill="#666666" d="M 274.5,41.5 C 291.453,43.6466 306.453,50.1466 319.5,61C 340.537,81.7139 356.37,105.881 367,133.5C 378.473,162.832 380.473,192.832 373,223.5C 363.375,249.21 352.875,274.543 341.5,299.5C 326.848,300.303 312.181,300.637 297.5,300.5C 293.033,291.096 291.2,281.096 292,270.5C 307.185,258.282 317.185,242.615 322,223.5C 327.028,205.662 327.695,187.662 324,169.5C 322.833,168.333 321.667,167.167 320.5,166C 299.635,168.638 282.801,161.805 270,145.5C 265.897,138.293 262.063,130.959 258.5,123.5C 251.583,137.501 242.583,150.001 231.5,161C 226.725,164.721 221.391,167.388 215.5,169C 206.503,170.498 197.503,171.832 188.5,173C 187,174.5 185.5,176 184,177.5C 180.059,205.798 186.059,231.798 202,255.5C 206.667,261.5 212,266.833 218,271.5C 218.2,277.507 217.867,283.507 217,289.5C 216.006,293.474 214.506,297.14 212.5,300.5C 197.818,300.833 183.152,300.499 168.5,299.5C 157.8,276.445 147.967,253.112 139,229.5C 133.736,210.19 132.07,190.523 134,170.5C 139.758,139.228 151.758,110.561 170,84.5C 183.404,64.5666 201.238,50.5666 223.5,42.5C 240.472,41.5574 257.472,41.224 274.5,41.5 Z"/></g>
<g><path style="opacity:1" fill="#fcd097" d="M 297.5,300.5 C 297.5,300.833 297.5,301.167 297.5,301.5C 299.803,306.107 302.47,310.44 305.5,314.5C 305.844,329.567 305.01,344.567 303,359.5C 299.081,379.337 290.415,396.671 277,411.5C 270.847,416.151 264.347,420.151 257.5,423.5C 252.305,423.821 247.305,423.487 242.5,422.5C 244.527,422.662 246.527,422.495 248.5,422C 232.186,413.519 220.852,400.686 214.5,383.5C 207.157,361.088 204.157,338.088 205.5,314.5C 208.586,310.261 210.92,305.594 212.5,300.5C 214.506,297.14 216.006,293.474 217,289.5C 217.867,283.507 218.2,277.507 218,271.5C 212,266.833 206.667,261.5 202,255.5C 186.059,231.798 180.059,205.798 184,177.5C 185.5,176 187,174.5 188.5,173C 197.503,171.832 206.503,170.498 215.5,169C 221.391,167.388 226.725,164.721 231.5,161C 242.583,150.001 251.583,137.501 258.5,123.5C 262.063,130.959 265.897,138.293 270,145.5C 282.801,161.805 299.635,168.638 320.5,166C 321.667,167.167 322.833,168.333 324,169.5C 327.695,187.662 327.028,205.662 322,223.5C 317.185,242.615 307.185,258.282 292,270.5C 291.2,281.096 293.033,291.096 297.5,300.5 Z"/></g>
<g><path style="opacity:1" fill="#eeb97e" d="M 219.5,271.5 C 231.703,284.151 246.703,288.984 264.5,286C 273.538,282.438 282.038,277.938 290,272.5C 290.825,276.211 290.659,279.878 289.5,283.5C 279.402,292.799 267.569,298.466 254,300.5C 241.047,298.772 229.88,293.439 220.5,284.5C 219.508,280.217 219.174,275.884 219.5,271.5 Z"/></g>
<g><path style="opacity:1" fill="#7cb9b6" d="M 341.5,299.5 C 327.205,301.483 312.538,302.15 297.5,301.5C 297.5,301.167 297.5,300.833 297.5,300.5C 312.181,300.637 326.848,300.303 341.5,299.5 Z"/></g>
<g><path style="opacity:1" fill="#fdfdf8" d="M 205.5,314.5 C 204.157,338.088 207.157,361.088 214.5,383.5C 220.852,400.686 232.186,413.519 248.5,422C 246.527,422.495 244.527,422.662 242.5,422.5C 233.583,420.541 225.583,416.708 218.5,411C 202.69,395.863 187.69,380.196 173.5,364C 168.108,359.32 162.441,355.153 156.5,351.5C 156.33,350.178 156.663,349.011 157.5,348C 163.82,343.7 169.82,339.2 175.5,334.5C 177.404,334.262 178.738,333.262 179.5,331.5C 188.167,325.833 196.833,320.167 205.5,314.5 Z"/></g>
<g><path style="opacity:1" fill="#fdfdf8" d="M 305.5,314.5 C 314.871,320.225 324.204,325.892 333.5,331.5C 333.721,332.735 334.388,333.735 335.5,334.5C 343.131,339.47 350.464,344.803 357.5,350.5C 353.308,353.521 348.974,356.355 344.5,359C 327.138,376.696 309.472,394.029 291.5,411C 281.252,418.028 269.919,422.195 257.5,423.5C 264.347,420.151 270.847,416.151 277,411.5C 290.415,396.671 299.081,379.337 303,359.5C 305.01,344.567 305.844,329.567 305.5,314.5 Z"/></g>
<g><path style="opacity:1" fill="#d4c56c" d="M 179.5,331.5 C 178.738,333.262 177.404,334.262 175.5,334.5C 173.097,334.448 170.764,334.781 168.5,335.5C 171.626,333.01 175.292,331.677 179.5,331.5 Z"/></g>
<g><path style="opacity:1" fill="#f6f6f6" d="M 511.5,279.5 C 511.5,356.833 511.5,434.167 511.5,511.5C 434.5,511.5 357.5,511.5 280.5,511.5C 284.539,510.684 288.539,509.684 292.5,508.5C 337.215,501.462 377.215,484.129 412.5,456.5C 413.5,455.5 414.5,454.5 415.5,453.5C 419.202,451.976 422.536,449.81 425.5,447C 473.866,401.437 502.533,345.604 511.5,279.5 Z"/></g>
<g><path style="opacity:1" fill="#bcd08a" d="M 360.5,339.5 C 363.152,339.41 365.485,340.076 367.5,341.5C 364.848,341.59 362.515,340.924 360.5,339.5 Z"/></g>
<g><path style="opacity:1" fill="#f6f6f6" d="M -0.5,287.5 C 2.82257,303.911 6.98924,320.244 12,336.5C 27.4567,382.62 53.9567,421.12 91.5,452C 93.0824,451.807 94.4157,450.974 95.5,449.5C 95.3379,451.527 95.5045,453.527 96,455.5C 132.855,486.081 175.355,503.748 223.5,508.5C 226.159,508.917 228.492,509.917 230.5,511.5C 153.5,511.5 76.5,511.5 -0.5,511.5C -0.5,436.833 -0.5,362.167 -0.5,287.5 Z"/></g>
<g><path style="opacity:1" fill="#f8b42a" d="M 333.5,331.5 C 342.52,333.846 351.52,336.512 360.5,339.5C 362.515,340.924 364.848,341.59 367.5,341.5C 380.784,344.388 391.284,351.388 399,362.5C 399.498,365.482 399.665,368.482 399.5,371.5C 399.953,375.748 400.953,379.748 402.5,383.5C 403.477,386.287 403.81,389.287 403.5,392.5C 404.423,400.221 405.423,407.888 406.5,415.5C 405.275,416.152 404.608,417.319 404.5,419C 404.603,423.248 405.103,423.414 406,419.5C 406.667,418.167 407.333,418.167 408,419.5C 408.333,423.5 408.667,427.5 409,431.5C 409.333,430.833 409.667,430.167 410,429.5C 412.451,436.717 412.951,444.05 411.5,451.5C 412.552,451.351 413.552,451.517 414.5,452C 412.963,453.11 412.297,454.61 412.5,456.5C 377.215,484.129 337.215,501.462 292.5,508.5C 269.501,509.82 246.501,509.82 223.5,508.5C 175.355,503.748 132.855,486.081 96,455.5C 95.5045,453.527 95.3379,451.527 95.5,449.5C 95.5,446.833 95.5,444.167 95.5,441.5C 96.1174,441.389 96.6174,441.056 97,440.5C 98.3304,432.182 99.4971,423.848 100.5,415.5C 101.451,414.081 101.784,412.415 101.5,410.5C 102.222,410.082 102.722,409.416 103,408.5C 103.29,403.368 104.124,398.368 105.5,393.5C 105.687,389.087 106.354,384.754 107.5,380.5C 108.657,377.727 109.324,374.727 109.5,371.5C 110.612,369.401 111.279,367.067 111.5,364.5C 111.281,363.325 111.614,362.325 112.5,361.5C 119.61,353.926 127.943,348.093 137.5,344C 147.778,340.847 158.111,338.013 168.5,335.5C 170.764,334.781 173.097,334.448 175.5,334.5C 169.82,339.2 163.82,343.7 157.5,348C 156.663,349.011 156.33,350.178 156.5,351.5C 162.441,355.153 168.108,359.32 173.5,364C 187.69,380.196 202.69,395.863 218.5,411C 225.583,416.708 233.583,420.541 242.5,422.5C 247.305,423.487 252.305,423.821 257.5,423.5C 269.919,422.195 281.252,418.028 291.5,411C 309.472,394.029 327.138,376.696 344.5,359C 348.974,356.355 353.308,353.521 357.5,350.5C 350.464,344.803 343.131,339.47 335.5,334.5C 334.388,333.735 333.721,332.735 333.5,331.5 Z"/></g>
<g><path style="opacity:1" fill="#c6c772" d="M 111.5,364.5 C 111.279,367.067 110.612,369.401 109.5,371.5C 108.99,368.612 109.656,366.279 111.5,364.5 Z"/></g>
<g><path style="opacity:1" fill="#b2ce8a" d="M 109.5,371.5 C 109.324,374.727 108.657,377.727 107.5,380.5C 107.336,377.813 107.503,375.146 108,372.5C 108.383,371.944 108.883,371.611 109.5,371.5 Z"/></g>
<g><path style="opacity:1" fill="#c4ca75" d="M 399.5,371.5 C 400.117,371.611 400.617,371.944 401,372.5C 401.719,376.145 402.219,379.812 402.5,383.5C 400.953,379.748 399.953,375.748 399.5,371.5 Z"/></g>
<g><path style="opacity:1" fill="#8bd3ae" d="M 105.5,393.5 C 104.124,398.368 103.29,403.368 103,408.5C 102.722,409.416 102.222,410.082 101.5,410.5C 103.139,403.974 102.805,397.641 100.5,391.5C 100.556,390.263 101.056,389.263 102,388.5C 102.494,390.134 102.66,391.801 102.5,393.5C 103.5,393.5 104.5,393.5 105.5,393.5 Z"/></g>
<g><path style="opacity:1" fill="#d9c465" d="M 403.5,392.5 C 406.37,400.832 408.37,409.498 409.5,418.5C 408.9,417.1 407.9,416.1 406.5,415.5C 405.423,407.888 404.423,400.221 403.5,392.5 Z"/></g>
<g><path style="opacity:1" fill="#8ad4af" d="M 100.5,415.5 C 99.4971,423.848 98.3304,432.182 97,440.5C 96.6174,441.056 96.1174,441.389 95.5,441.5C 96.773,436.832 96.773,432.165 95.5,427.5C 96.325,426.614 97.325,426.281 98.5,426.5C 98.335,423.15 98.5017,419.817 99,416.5C 99.3826,415.944 99.8826,415.611 100.5,415.5 Z"/></g>
<g><path style="opacity:1" fill="#edba44" d="M 406.5,415.5 C 407.9,416.1 408.9,417.1 409.5,418.5C 411.794,430.099 413.794,441.766 415.5,453.5C 414.5,454.5 413.5,455.5 412.5,456.5C 412.297,454.61 412.963,453.11 414.5,452C 413.552,451.517 412.552,451.351 411.5,451.5C 412.951,444.05 412.451,436.717 410,429.5C 409.667,430.167 409.333,430.833 409,431.5C 408.667,427.5 408.333,423.5 408,419.5C 407.333,418.167 406.667,418.167 406,419.5C 405.103,423.414 404.603,423.248 404.5,419C 404.608,417.319 405.275,416.152 406.5,415.5 Z"/></g>
<g><path style="opacity:1" fill="#f3c056" d="M 223.5,508.5 C 246.501,509.82 269.501,509.82 292.5,508.5C 288.539,509.684 284.539,510.684 280.5,511.5C 263.833,511.5 247.167,511.5 230.5,511.5C 228.492,509.917 226.159,508.917 223.5,508.5 Z"/></g>
</svg>
