<?xml version="1.0" encoding="UTF-8"?>
<!DOCTYPE svg PUBLIC "-//W3C//DTD SVG 1.1//EN" "http://www.w3.org/Graphics/SVG/1.1/DTD/svg11.dtd">
<svg xmlns="http://www.w3.org/2000/svg" version="1.1" width="512px" height="512px" style="shape-rendering:geometricPrecision; text-rendering:geometricPrecision; image-rendering:optimizeQuality; fill-rule:evenodd; clip-rule:evenodd" xmlns:xlink="http://www.w3.org/1999/xlink">
<g><path style="opacity:1" fill="#f6f6f6" d="M -0.5,-0.5 C 74.1667,-0.5 148.833,-0.5 223.5,-0.5C 147.103,11.272 86.6034,48.6054 42,111.5C 30.1047,129.624 20.6047,148.958 13.5,169.5C 8.94214,181.054 5.60881,193.054 3.5,205.5C 1.90921,211.566 0.575875,217.566 -0.5,223.5C -0.5,148.833 -0.5,74.1667 -0.5,-0.5 Z"/></g>
<g><path style="opacity:1" fill="#56617e" d="M 223.5,-0.5 C 243.167,-0.5 262.833,-0.5 282.5,-0.5C 391.824,16.3216 464.657,76.9883 501,181.5C 509.993,213.546 513.16,246.213 510.5,279.5C 502.717,349.08 472.383,406.413 419.5,451.5C 416.379,449.552 413.379,447.385 410.5,445C 380.5,430 350.5,415 320.5,400C 314.429,395.585 310.262,389.752 308,382.5C 306.425,368.547 306.091,354.547 307,340.5C 321.337,322.838 332.337,303.172 340,281.5C 351.438,276.632 357.438,267.965 358,255.5C 358.667,243.5 358.667,231.5 358,219.5C 356.621,212.91 353.788,207.077 349.5,202C 364.959,112.131 327.292,70.4639 236.5,77C 210.941,78.1973 189.775,88.364 173,107.5C 167.971,115.226 164.304,123.559 162,132.5C 161.438,146.834 160.938,161.167 160.5,175.5C 159.507,183.984 159.174,192.651 159.5,201.5C 156.692,201.969 154.358,203.303 152.5,205.5C 152.987,206.446 153.32,207.446 153.5,208.5C 152.388,210.39 151.554,212.39 151,214.5C 150.776,229.349 150.276,244.183 149.5,259C 149.631,261.253 150.131,263.419 151,265.5C 154.361,268.042 155.861,271.209 155.5,275C 157.35,277.033 158.016,277.033 157.5,275C 158.094,274.536 158.761,274.369 159.5,274.5C 161.317,275.816 162.983,277.316 164.5,279C 169.937,301.705 179.771,322.205 194,340.5C 194.667,353.167 194.667,365.833 194,378.5C 192.536,387.926 187.702,395.093 179.5,400C 154.167,413.667 128.833,427.333 103.5,441C 98.9344,444.414 94.2677,447.58 89.5,450.5C 38.5825,406.675 8.58251,351.342 -0.5,284.5C -0.5,264.167 -0.5,243.833 -0.5,223.5C 0.575875,217.566 1.90921,211.566 3.5,205.5C 4.93496,203.402 6.10163,201.069 7,198.5C 8.73058,188.673 10.8972,179.007 13.5,169.5C 20.6047,148.958 30.1047,129.624 42,111.5C 86.6034,48.6054 147.103,11.272 223.5,-0.5 Z"/></g>
<g><path style="opacity:1" fill="#f6f6f6" d="M 282.5,-0.5 C 358.833,-0.5 435.167,-0.5 511.5,-0.5C 511.5,92.8333 511.5,186.167 511.5,279.5C 511.167,279.5 510.833,279.5 510.5,279.5C 513.16,246.213 509.993,213.546 501,181.5C 464.657,76.9883 391.824,16.3216 282.5,-0.5 Z"/></g>
<g><path style="opacity:1" fill="#e5ebeb" d="M 419.5,451.5 C 381.732,482.706 338.398,502.039 289.5,509.5C 288.287,509.747 287.62,510.414 287.5,511.5C 268.833,511.5 250.167,511.5 231.5,511.5C 183.585,506.2 140.251,489.366 101.5,461C 97.5867,457.263 93.5867,453.763 89.5,450.5C 94.2677,447.58 98.9344,444.414 103.5,441C 128.833,427.333 154.167,413.667 179.5,400C 187.702,395.093 192.536,387.926 194,378.5C 194.667,365.833 194.667,353.167 194,340.5C 179.771,322.205 169.937,301.705 164.5,279C 162.983,277.316 161.317,275.816 159.5,274.5C 156.569,270.975 154.402,266.975 153,262.5C 151.12,246.808 151.12,231.141 153,215.5C 154.31,210.876 156.644,206.876 160,203.5C 160.5,194.173 160.666,184.839 160.5,175.5C 160.938,161.167 161.438,146.834 162,132.5C 164.304,123.559 167.971,115.226 173,107.5C 189.775,88.364 210.941,78.1973 236.5,77C 327.292,70.4639 364.959,112.131 349.5,202C 353.788,207.077 356.621,212.91 358,219.5C 358.667,231.5 358.667,243.5 358,255.5C 357.438,267.965 351.438,276.632 340,281.5C 332.337,303.172 321.337,322.838 307,340.5C 306.091,354.547 306.425,368.547 308,382.5C 310.262,389.752 314.429,395.585 320.5,400C 350.5,415 380.5,430 410.5,445C 413.379,447.385 416.379,449.552 419.5,451.5 Z"/></g>
<g><path style="opacity:1" fill="#62697e" d="M 13.5,169.5 C 10.8972,179.007 8.73058,188.673 7,198.5C 6.10163,201.069 4.93496,203.402 3.5,205.5C 5.60881,193.054 8.94214,181.054 13.5,169.5 Z"/></g>
<g><path style="opacity:1" fill="#5a637a" d="M 160.5,175.5 C 160.666,184.839 160.5,194.173 160,203.5C 156.644,206.876 154.31,210.876 153,215.5C 151.12,231.141 151.12,246.808 153,262.5C 154.402,266.975 156.569,270.975 159.5,274.5C 158.761,274.369 158.094,274.536 157.5,275C 158.016,277.033 157.35,277.033 155.5,275C 155.861,271.209 154.361,268.042 151,265.5C 150.131,263.419 149.631,261.253 149.5,259C 150.276,244.183 150.776,229.349 151,214.5C 151.554,212.39 152.388,210.39 153.5,208.5C 153.32,207.446 152.987,206.446 152.5,205.5C 154.358,203.303 156.692,201.969 159.5,201.5C 159.174,192.651 159.507,183.984 160.5,175.5 Z"/></g>
<g><path style="opacity:1" fill="#f6f6f6" d="M -0.5,284.5 C 8.58251,351.342 38.5825,406.675 89.5,450.5C 93.5867,453.763 97.5867,457.263 101.5,461C 140.251,489.366 183.585,506.2 231.5,511.5C 154.167,511.5 76.8333,511.5 -0.5,511.5C -0.5,435.833 -0.5,360.167 -0.5,284.5 Z"/></g>
<g><path style="opacity:1" fill="#f6f6f6" d="M 510.5,279.5 C 510.833,279.5 511.167,279.5 511.5,279.5C 511.5,356.833 511.5,434.167 511.5,511.5C 436.833,511.5 362.167,511.5 287.5,511.5C 287.62,510.414 288.287,509.747 289.5,509.5C 338.398,502.039 381.732,482.706 419.5,451.5C 472.383,406.413 502.717,349.08 510.5,279.5 Z"/></g>
</svg>
